<svg xmlns="http://www.w3.org/2000/svg" xmlns:xlink="http://www.w3.org/1999/xlink" width="336" zoomAndPan="magnify" viewBox="0 0 252 286.499991" height="382" preserveAspectRatio="xMidYMid meet" version="1.0"><defs><g/><clipPath id="e7c2f45e8f"><path d="M 0.660156 0.214844 L 251.472656 0.214844 L 251.472656 225.242188 L 0.660156 225.242188 Z M 0.660156 0.214844 " clip-rule="nonzero"/></clipPath><clipPath id="f07055c38d"><path d="M 67.980469 22.519531 L 184.027344 22.519531 L 184.027344 134.824219 L 67.980469 134.824219 Z M 67.980469 22.519531 " clip-rule="nonzero"/></clipPath></defs><g clip-path="url(#e7c2f45e8f)"><path fill="#789940" d="M 126.066406 169.90625 C 124.027344 169.90625 122.367188 168.242188 122.367188 166.203125 C 122.367188 164.160156 124.027344 162.5 126.066406 162.5 C 128.105469 162.5 129.765625 164.160156 129.765625 166.203125 C 129.765625 168.242188 128.105469 169.90625 126.066406 169.90625 Z M 126.066406 157.375 C 121.199219 157.375 117.25 161.339844 117.25 166.203125 C 117.25 171.078125 121.199219 175.03125 126.066406 175.03125 C 130.9375 175.03125 134.886719 171.078125 134.886719 166.203125 C 134.886719 161.339844 130.9375 157.375 126.066406 157.375 Z M 232.886719 182.464844 L 19.246094 182.464844 C 11.816406 182.464844 5.78125 176 5.78125 168.042969 L 5.78125 149.9375 L 246.355469 149.9375 L 246.355469 168.042969 C 246.355469 176 240.316406 182.464844 232.886719 182.464844 Z M 155.929688 220.117188 L 96.207031 220.117188 L 107.261719 187.589844 L 144.871094 187.589844 Z M 19.246094 5.347656 L 232.886719 5.347656 C 240.316406 5.347656 246.355469 11.8125 246.355469 19.769531 L 246.355469 144.8125 L 5.78125 144.8125 L 5.78125 19.769531 C 5.78125 11.8125 11.816406 5.347656 19.246094 5.347656 Z M 232.886719 0.222656 L 19.246094 0.222656 C 9 0.222656 0.660156 8.992188 0.660156 19.769531 L 0.660156 168.042969 C 0.660156 178.824219 9 187.589844 19.246094 187.589844 L 101.855469 187.589844 L 90.207031 221.859375 C 89.945312 222.640625 90.066406 223.5 90.546875 224.171875 C 91.035156 224.839844 91.808594 225.242188 92.636719 225.242188 L 159.5 225.242188 C 160.328125 225.242188 161.097656 224.839844 161.585938 224.171875 C 162.066406 223.5 162.1875 222.640625 161.925781 221.859375 L 150.28125 187.589844 L 232.886719 187.589844 C 243.136719 187.589844 251.472656 178.824219 251.472656 168.042969 L 251.472656 19.769531 C 251.472656 8.992188 243.136719 0.222656 232.886719 0.222656 " fill-opacity="1" fill-rule="nonzero"/></g><g clip-path="url(#f07055c38d)"><path fill="#789940" d="M 184.023438 24.542969 L 184.011719 24.332031 C 183.894531 23.308594 182.972656 22.574219 181.949219 22.691406 L 111.257812 31.019531 C 110.296875 31.09375 109.542969 31.898438 109.542969 32.875 L 109.542969 78.40625 C 108.492188 78.734375 107.558594 79.332031 106.804688 80.125 C 105.648438 81.335938 104.929688 82.996094 104.929688 84.808594 L 104.929688 84.882812 C 96.800781 86.25 89.503906 90.160156 83.902344 95.761719 C 76.863281 102.808594 72.492188 112.527344 72.492188 123.21875 C 72.492188 123.5 72.5 123.835938 72.511719 124.222656 C 71.359375 124.394531 70.324219 124.933594 69.535156 125.722656 C 68.578125 126.6875 67.980469 128.019531 67.980469 129.480469 C 67.980469 130.945312 68.578125 132.277344 69.539062 133.242188 C 70.503906 134.203125 71.832031 134.800781 73.296875 134.800781 L 182.164062 134.800781 C 183.195312 134.800781 184.027344 133.964844 184.027344 132.933594 L 184.027344 32.875 Z M 180.296875 31.007812 L 143.175781 31.007812 L 180.296875 26.636719 Z M 109.492188 82.683594 L 109.5 82.683594 C 109.992188 82.171875 110.667969 81.851562 111.410156 81.851562 L 111.425781 81.851562 C 112.167969 81.851562 112.84375 82.171875 113.335938 82.683594 L 113.417969 82.765625 C 113.8125 83.210938 114.074219 83.792969 114.152344 84.441406 C 113.273438 84.382812 112.382812 84.351562 111.488281 84.351562 L 111.347656 84.351562 C 110.453125 84.351562 109.566406 84.382812 108.683594 84.441406 C 108.765625 83.753906 109.058594 83.140625 109.492188 82.683594 Z M 86.546875 98.40625 C 92.910156 92.035156 101.695312 88.082031 111.347656 88.082031 L 111.488281 88.082031 C 121.144531 88.082031 129.925781 92.035156 136.289062 98.40625 C 142.65625 104.773438 146.605469 113.558594 146.605469 123.21875 L 146.597656 124.164062 L 76.234375 124.164062 L 76.226562 123.21875 C 76.226562 113.558594 80.179688 104.773438 86.546875 98.40625 Z M 72.175781 130.601562 C 71.890625 130.3125 71.710938 129.917969 71.710938 129.480469 C 71.710938 129.046875 71.890625 128.652344 72.175781 128.359375 C 72.464844 128.074219 72.863281 127.894531 73.296875 127.894531 L 149.539062 127.894531 C 149.976562 127.894531 150.371094 128.074219 150.660156 128.359375 C 150.945312 128.648438 151.125 129.046875 151.125 129.480469 C 151.125 129.917969 150.945312 130.3125 150.660156 130.601562 C 150.371094 130.890625 149.976562 131.070312 149.539062 131.070312 L 73.292969 131.070312 C 72.863281 131.070312 72.464844 130.890625 72.175781 130.601562 Z M 180.296875 131.070312 L 154.609375 131.070312 C 154.769531 130.566406 154.855469 130.03125 154.855469 129.480469 C 154.855469 128.019531 154.257812 126.6875 153.292969 125.722656 C 152.503906 124.933594 151.46875 124.394531 150.316406 124.222656 C 150.328125 123.832031 150.335938 123.492188 150.335938 123.21875 C 150.335938 119.644531 149.84375 116.179688 148.933594 112.890625 L 167.640625 112.890625 C 168.671875 112.890625 169.507812 112.054688 169.507812 111.023438 C 169.507812 109.992188 168.671875 109.15625 167.640625 109.15625 L 147.691406 109.15625 C 146.933594 107.207031 146.015625 105.335938 144.964844 103.554688 L 167.640625 103.554688 C 168.671875 103.554688 169.507812 102.71875 169.507812 101.6875 C 169.507812 100.65625 168.671875 99.820312 167.640625 99.820312 L 142.460938 99.820312 C 141.375 98.386719 140.195312 97.027344 138.925781 95.761719 C 138.394531 95.230469 137.847656 94.71875 137.292969 94.21875 L 167.640625 94.21875 C 168.671875 94.21875 169.507812 93.382812 169.507812 92.351562 C 169.507812 91.320312 168.671875 90.484375 167.640625 90.484375 L 132.386719 90.484375 C 128.058594 87.707031 123.152344 85.761719 117.898438 84.878906 L 117.898438 84.804688 C 117.898438 83.046875 117.226562 81.4375 116.132812 80.234375 L 116.023438 80.113281 C 115.269531 79.320312 114.324219 78.722656 113.269531 78.394531 L 113.269531 34.742188 L 180.292969 34.742188 L 180.292969 131.070312 Z M 134.554688 62.171875 C 135.285156 62.902344 136.464844 62.902344 137.191406 62.171875 L 139.679688 59.6875 L 145.265625 65.277344 L 133.734375 76.816406 C 133.007812 77.542969 133.007812 78.722656 133.734375 79.453125 C 134.460938 80.179688 135.644531 80.179688 136.371094 79.453125 L 147.902344 67.914062 L 159.4375 79.453125 C 160.164062 80.179688 161.34375 80.179688 162.074219 79.453125 C 162.800781 78.722656 162.800781 77.542969 162.074219 76.816406 L 150.539062 65.277344 L 156.304688 59.507812 C 157.632812 60.261719 159.167969 60.574219 160.730469 60.453125 C 162.820312 60.285156 164.964844 59.335938 166.664062 57.636719 C 168.359375 55.9375 169.308594 53.796875 169.476562 51.703125 C 169.652344 49.511719 168.96875 47.363281 167.394531 45.789062 L 167.273438 45.667969 C 165.707031 44.171875 163.613281 43.527344 161.472656 43.699219 C 159.378906 43.863281 157.238281 44.816406 155.539062 46.511719 C 153.84375 48.210938 152.894531 50.351562 152.726562 52.449219 C 152.601562 54.011719 152.914062 55.546875 153.671875 56.871094 L 147.902344 62.644531 L 142.316406 57.054688 L 144.800781 54.566406 C 145.53125 53.835938 145.53125 52.65625 144.800781 51.925781 L 134.855469 41.976562 C 134.128906 41.246094 132.949219 41.246094 132.21875 41.976562 C 131.492188 42.703125 131.492188 43.886719 132.21875 44.613281 L 140.847656 53.246094 L 139.679688 54.417969 L 131.050781 45.785156 C 130.324219 45.054688 129.140625 45.054688 128.414062 45.785156 C 127.683594 46.511719 127.683594 47.695312 128.414062 48.421875 L 137.042969 57.054688 L 135.871094 58.226562 L 127.246094 49.59375 C 126.515625 48.863281 125.335938 48.863281 124.605469 49.59375 C 123.878906 50.320312 123.878906 51.503906 124.605469 52.230469 Z M 156.445312 52.734375 C 156.542969 51.492188 157.128906 50.195312 158.179688 49.144531 C 159.230469 48.09375 160.523438 47.507812 161.765625 47.410156 C 162.867188 47.324219 163.921875 47.625 164.683594 48.335938 L 164.761719 48.410156 C 165.527344 49.179688 165.851562 50.265625 165.761719 51.40625 C 165.664062 52.648438 165.078125 53.945312 164.027344 54.996094 C 162.976562 56.046875 161.683594 56.632812 160.441406 56.730469 C 159.324219 56.816406 158.25 56.5 157.480469 55.761719 C 157.46875 55.75 157.460938 55.738281 157.449219 55.726562 C 157.4375 55.714844 157.425781 55.707031 157.414062 55.695312 C 156.675781 54.929688 156.355469 53.855469 156.445312 52.734375 Z M 156.445312 52.734375 " fill-opacity="1" fill-rule="nonzero"/></g><g fill="#789940" fill-opacity="1"><g transform="translate(58.201562, 261.29615)"><g><path d="M 20.0625 7.0625 C 18.351562 6.519531 17.3125 4.847656 16.9375 2.046875 L 15.703125 -5.984375 L 12.90625 -6.875 L 11.40625 -2.453125 C 11.113281 -1.523438 10.96875 -0.835938 10.96875 -0.390625 C 10.96875 0.0546875 11.128906 0.40625 11.453125 0.65625 C 11.785156 0.90625 12.398438 1.179688 13.296875 1.484375 L 13.328125 1.765625 L 12.21875 4.0625 C 11.757812 3.882812 10.941406 3.59375 9.765625 3.1875 C 8.585938 2.789062 7.492188 2.429688 6.484375 2.109375 C 5.515625 1.804688 4.507812 1.515625 3.46875 1.234375 C 2.425781 0.953125 1.742188 0.78125 1.421875 0.71875 L 2.59375 -1.78125 C 3.75 -1.550781 4.582031 -1.597656 5.09375 -1.921875 C 5.613281 -2.253906 6.054688 -2.984375 6.421875 -4.109375 L 11.28125 -19.375 C 11.519531 -20.132812 11.597656 -20.675781 11.515625 -21 C 11.429688 -21.320312 11.140625 -21.5625 10.640625 -21.71875 C 10.359375 -21.8125 10.078125 -21.882812 9.796875 -21.9375 C 9.523438 -21.988281 9.351562 -22.023438 9.28125 -22.046875 L 9.125 -22.4375 L 10.25 -24.703125 C 10.613281 -24.585938 11.28125 -24.359375 12.25 -24.015625 C 13.226562 -23.679688 14.195312 -23.359375 15.15625 -23.046875 C 16.207031 -22.710938 17.347656 -22.375 18.578125 -22.03125 C 19.816406 -21.6875 20.671875 -21.457031 21.140625 -21.34375 C 24.140625 -20.382812 26.253906 -19.070312 27.484375 -17.40625 C 28.710938 -15.738281 28.976562 -13.816406 28.28125 -11.640625 C 27.789062 -10.085938 26.875 -8.8125 25.53125 -7.8125 C 24.195312 -6.8125 22.539062 -6.148438 20.5625 -5.828125 L 22.234375 0.90625 C 22.585938 2.351562 23.019531 3.445312 23.53125 4.1875 C 24.050781 4.9375 24.734375 5.441406 25.578125 5.703125 L 25.75 6.15625 L 24.8125 8.09375 Z M 17.546875 -8.75 C 18.535156 -8.84375 19.5 -9.132812 20.4375 -9.625 C 21.375 -10.125 22.085938 -11.132812 22.578125 -12.65625 C 23.035156 -14.101562 22.890625 -15.335938 22.140625 -16.359375 C 21.390625 -17.390625 20.003906 -18.222656 17.984375 -18.859375 C 17.710938 -18.953125 17.515625 -18.957031 17.390625 -18.875 C 17.273438 -18.789062 17.144531 -18.570312 17 -18.21875 C 15.976562 -15.5625 15.019531 -12.910156 14.125 -10.265625 Z M 17.546875 -8.75 "/></g></g></g><g fill="#789940" fill-opacity="1"><g transform="translate(85.524085, 269.7447)"><g><path d="M 23.984375 -4.140625 C 23.222656 -2.078125 22.457031 0.378906 21.6875 3.234375 L 21.203125 3.640625 C 16.023438 2.617188 11.800781 1.851562 8.53125 1.34375 C 6.25 0.976562 3.90625 0.75 1.5 0.65625 L 2.203125 -2.03125 C 3.367188 -2.019531 4.195312 -2.226562 4.6875 -2.65625 C 5.175781 -3.082031 5.515625 -3.894531 5.703125 -5.09375 L 8.1875 -20.65625 C 8.320312 -21.550781 8.332031 -22.15625 8.21875 -22.46875 C 8.113281 -22.78125 7.785156 -22.984375 7.234375 -23.078125 C 6.878906 -23.128906 6.453125 -23.160156 5.953125 -23.171875 L 5.765625 -23.59375 L 6.484375 -26 L 7.3125 -25.859375 C 9.21875 -25.472656 11.394531 -25.085938 13.84375 -24.703125 C 19.925781 -23.742188 24.097656 -23.257812 26.359375 -23.25 L 26.609375 -22.75 C 26.242188 -21.769531 25.863281 -20.597656 25.46875 -19.234375 C 25.070312 -17.878906 24.75 -16.628906 24.5 -15.484375 L 20.84375 -15.8125 L 21.171875 -17.4375 C 21.304688 -18.257812 21.28125 -18.859375 21.09375 -19.234375 C 20.914062 -19.609375 20.488281 -19.910156 19.8125 -20.140625 C 19.144531 -20.378906 17.992188 -20.628906 16.359375 -20.890625 C 15.648438 -20.992188 15.148438 -21.039062 14.859375 -21.03125 C 14.578125 -21.019531 14.375 -20.925781 14.25 -20.75 C 14.132812 -20.570312 14.03125 -20.269531 13.9375 -19.84375 L 12.640625 -13.46875 L 16.46875 -12.8125 C 17.03125 -12.71875 17.75 -12.640625 18.625 -12.578125 C 19.5 -12.515625 20.378906 -12.46875 21.265625 -12.4375 L 21.53125 -12.015625 L 20.40625 -8.640625 C 20.050781 -8.691406 19.785156 -8.75 19.609375 -8.8125 C 17.710938 -9.164062 16.207031 -9.429688 15.09375 -9.609375 C 14.25 -9.734375 13.179688 -9.8125 11.890625 -9.84375 L 10.890625 -4.03125 C 10.773438 -3.257812 10.753906 -2.695312 10.828125 -2.34375 C 10.898438 -2 11.097656 -1.75 11.421875 -1.59375 C 11.742188 -1.4375 12.328125 -1.289062 13.171875 -1.15625 C 14.972656 -0.875 16.289062 -0.769531 17.125 -0.84375 C 17.957031 -0.925781 18.597656 -1.25 19.046875 -1.8125 C 19.503906 -2.382812 19.941406 -3.378906 20.359375 -4.796875 L 23.734375 -4.5625 Z M 23.984375 -4.140625 "/></g></g></g><g fill="#789940" fill-opacity="1"><g transform="translate(111.792504, 273.66317)"><g><path d="M 9.09375 0.65625 C 7.820312 0.632812 6.648438 0.492188 5.578125 0.234375 C 4.503906 -0.015625 3.617188 -0.28125 2.921875 -0.5625 C 2.222656 -0.851562 1.875 -1.015625 1.875 -1.046875 L 1.5625 -1.625 C 1.59375 -1.8125 1.660156 -2.226562 1.765625 -2.875 C 1.867188 -3.53125 1.984375 -4.398438 2.109375 -5.484375 C 2.242188 -6.578125 2.316406 -7.632812 2.328125 -8.65625 L 5.734375 -8.84375 C 5.703125 -7.300781 5.816406 -6.113281 6.078125 -5.28125 C 6.335938 -4.445312 6.789062 -3.851562 7.4375 -3.5 C 8.082031 -3.144531 9.007812 -2.957031 10.21875 -2.9375 C 11.550781 -2.914062 12.617188 -3.1875 13.421875 -3.75 C 14.234375 -4.3125 14.648438 -5.101562 14.671875 -6.125 C 14.679688 -7.03125 14.269531 -7.804688 13.4375 -8.453125 C 12.613281 -9.109375 11.328125 -9.878906 9.578125 -10.765625 C 9.472656 -10.816406 9.15625 -10.972656 8.625 -11.234375 C 6.582031 -12.265625 4.988281 -13.335938 3.84375 -14.453125 C 2.707031 -15.578125 2.148438 -17.023438 2.171875 -18.796875 C 2.203125 -20.367188 2.695312 -21.773438 3.65625 -23.015625 C 4.613281 -24.253906 5.929688 -25.210938 7.609375 -25.890625 C 9.296875 -26.566406 11.203125 -26.882812 13.328125 -26.84375 C 14.535156 -26.820312 15.65625 -26.71875 16.6875 -26.53125 C 17.726562 -26.351562 18.554688 -26.171875 19.171875 -25.984375 C 19.785156 -25.796875 20.175781 -25.664062 20.34375 -25.59375 L 20.625 -25.0625 C 20.59375 -24.894531 20.5 -24.472656 20.34375 -23.796875 C 20.195312 -23.128906 20.046875 -22.269531 19.890625 -21.21875 C 19.742188 -20.175781 19.617188 -19.101562 19.515625 -18 L 16.453125 -17.8125 L 16.078125 -18.0625 C 16.078125 -18.144531 16.09375 -18.316406 16.125 -18.578125 C 16.15625 -18.835938 16.171875 -19.160156 16.171875 -19.546875 C 16.191406 -20.796875 15.894531 -21.6875 15.28125 -22.21875 C 14.675781 -22.75 13.644531 -23.023438 12.1875 -23.046875 C 11 -23.066406 10.019531 -22.800781 9.25 -22.25 C 8.476562 -21.707031 8.085938 -20.992188 8.078125 -20.109375 C 8.066406 -19.441406 8.296875 -18.832031 8.765625 -18.28125 C 9.242188 -17.738281 9.816406 -17.269531 10.484375 -16.875 C 11.160156 -16.476562 12.140625 -15.953125 13.421875 -15.296875 C 14.953125 -14.523438 16.21875 -13.828125 17.21875 -13.203125 C 18.21875 -12.578125 19.050781 -11.789062 19.71875 -10.84375 C 20.394531 -9.894531 20.71875 -8.769531 20.6875 -7.46875 C 20.664062 -5.820312 20.164062 -4.378906 19.1875 -3.140625 C 18.21875 -1.898438 16.863281 -0.945312 15.125 -0.28125 C 13.382812 0.382812 11.375 0.695312 9.09375 0.65625 Z M 9.09375 0.65625 "/></g></g></g><g fill="#789940" fill-opacity="1"><g transform="translate(135.948336, 273.985965)"><g><path d="M 4.53125 -3 C 5.769531 -3.257812 6.648438 -3.53125 7.171875 -3.8125 C 7.691406 -4.101562 8.015625 -4.53125 8.140625 -5.09375 C 8.273438 -5.664062 8.265625 -6.582031 8.109375 -7.84375 L 6.140625 -24.3125 C 4.554688 -24.0625 3.457031 -23.789062 2.84375 -23.5 C 2.226562 -23.207031 1.835938 -22.707031 1.671875 -22 C 1.503906 -21.300781 1.425781 -20.066406 1.4375 -18.296875 L -1.90625 -17.65625 C -1.976562 -19.945312 -2.15625 -22.878906 -2.4375 -26.453125 L -2.0625 -26.96875 L 2.078125 -27 L 14.890625 -28.53125 L 18.984375 -29.46875 L 19.5 -29.078125 C 19.9375 -25.785156 20.414062 -22.96875 20.9375 -20.625 L 17.5625 -19.96875 C 17.125 -21.8125 16.75 -23.054688 16.4375 -23.703125 C 16.125 -24.359375 15.65625 -24.765625 15.03125 -24.921875 C 14.414062 -25.085938 13.351562 -25.113281 11.84375 -25 C 11.945312 -22.957031 12.160156 -20.191406 12.484375 -16.703125 C 12.804688 -13.210938 13.140625 -10.039062 13.484375 -7.1875 C 13.609375 -6.175781 13.875 -5.472656 14.28125 -5.078125 C 14.6875 -4.679688 15.289062 -4.53125 16.09375 -4.625 C 16.769531 -4.707031 17.488281 -4.835938 18.25 -5.015625 L 18.40625 -4.828125 L 18.390625 -2.015625 C 15.472656 -1.785156 13.109375 -1.5625 11.296875 -1.34375 C 9.878906 -1.175781 7.617188 -0.820312 4.515625 -0.28125 Z M 4.53125 -3 "/></g></g></g><g fill="#789940" fill-opacity="1"><g transform="translate(160.604298, 270.66779)"><g><path d="M 0.9375 -2.4375 C 1.675781 -2.738281 2.179688 -3.125 2.453125 -3.59375 C 2.734375 -4.070312 2.789062 -4.6875 2.625 -5.4375 L 0.640625 -14.15625 C 0.441406 -15.019531 0.1875 -15.582031 -0.125 -15.84375 C -0.445312 -16.101562 -0.925781 -16.160156 -1.5625 -16.015625 C -1.757812 -15.972656 -1.945312 -15.914062 -2.125 -15.84375 C -2.3125 -15.78125 -2.425781 -15.726562 -2.46875 -15.6875 L -2.75 -18.046875 C -1.300781 -18.597656 0.164062 -19.191406 1.65625 -19.828125 C 3.15625 -20.472656 4.125 -20.90625 4.5625 -21.125 L 5.078125 -20.546875 C 4.910156 -19.890625 5.039062 -18.210938 5.46875 -15.515625 C 5.894531 -12.828125 6.515625 -9.695312 7.328125 -6.125 C 7.472656 -5.476562 7.671875 -5.046875 7.921875 -4.828125 C 8.179688 -4.609375 8.539062 -4.550781 9 -4.65625 C 9.238281 -4.707031 9.46875 -4.769531 9.6875 -4.84375 C 9.914062 -4.925781 10.066406 -4.972656 10.140625 -4.984375 L 10.3125 -4.8125 L 10.484375 -2.25 C 10.179688 -2.21875 9.585938 -2.113281 8.703125 -1.9375 C 7.828125 -1.769531 6.929688 -1.582031 6.015625 -1.375 C 5.171875 -1.175781 4.226562 -0.894531 3.1875 -0.53125 C 2.15625 -0.175781 1.484375 0.0625 1.171875 0.1875 Z M 0.515625 -23.828125 C -0.378906 -23.628906 -1.125 -23.726562 -1.71875 -24.125 C -2.320312 -24.53125 -2.722656 -25.164062 -2.921875 -26.03125 C -3.140625 -27 -3.023438 -27.84375 -2.578125 -28.5625 C -2.140625 -29.28125 -1.4375 -29.75 -0.46875 -29.96875 C 0.394531 -30.164062 1.128906 -30.054688 1.734375 -29.640625 C 2.335938 -29.234375 2.738281 -28.597656 2.9375 -27.734375 C 3.144531 -26.796875 3.023438 -25.960938 2.578125 -25.234375 C 2.128906 -24.515625 1.441406 -24.046875 0.515625 -23.828125 Z M 0.515625 -23.828125 "/></g></g></g><g fill="#789940" fill-opacity="1"><g transform="translate(173.741484, 267.840978)"><g><path d="M 9.6875 -2.71875 C 8.039062 -2.164062 6.460938 -2.050781 4.953125 -2.375 C 3.453125 -2.707031 2.132812 -3.441406 1 -4.578125 C -0.125 -5.710938 -0.988281 -7.164062 -1.59375 -8.9375 C -2.25 -10.894531 -2.429688 -12.765625 -2.140625 -14.546875 C -1.859375 -16.328125 -1.144531 -17.882812 0 -19.21875 C 1.132812 -20.550781 2.632812 -21.53125 4.5 -22.15625 C 7.03125 -23 9.304688 -22.863281 11.328125 -21.75 C 13.347656 -20.632812 14.816406 -18.703125 15.734375 -15.953125 C 16.390625 -13.992188 16.582031 -12.117188 16.3125 -10.328125 C 16.039062 -8.535156 15.332031 -6.972656 14.1875 -5.640625 C 13.039062 -4.316406 11.539062 -3.34375 9.6875 -2.71875 Z M 9.484375 -5.921875 C 10.609375 -6.296875 11.3125 -7.035156 11.59375 -8.140625 C 11.882812 -9.242188 11.738281 -10.671875 11.15625 -12.421875 C 10.332031 -14.878906 9.367188 -16.625 8.265625 -17.65625 C 7.171875 -18.6875 5.984375 -18.984375 4.703125 -18.546875 C 3.578125 -18.171875 2.867188 -17.429688 2.578125 -16.328125 C 2.296875 -15.222656 2.445312 -13.796875 3.03125 -12.046875 C 3.851562 -9.585938 4.816406 -7.84375 5.921875 -6.8125 C 7.023438 -5.789062 8.210938 -5.492188 9.484375 -5.921875 Z M 9.484375 -5.921875 "/></g></g></g></svg>