
<svg version="1.0" xmlns="http://www.w3.org/2000/svg"
 width="512.000000pt" height="512.000000pt" viewBox="0 0 512.000000 512.000000"
 preserveAspectRatio="xMidYMid meet">

<g transform="translate(0.000000,512.000000) scale(0.100000,-0.100000)"
fill="#789940" stroke="none">
<path d="M4275 4783 c-126 -57 -238 -112 -247 -120 -24 -21 -23 -70 2 -110 10
-18 15 -35 10 -38 -5 -3 -49 -11 -97 -17 -149 -19 -368 10 -653 87 -141 38
-314 65 -413 66 -76 0 -94 -3 -130 -24 -56 -33 -1504 -1378 -1540 -1430 -83
-122 -67 -276 40 -379 57 -55 115 -78 199 -78 116 0 148 21 464 315 151 140
278 255 282 255 3 0 9 -12 12 -28 12 -51 77 -125 141 -157 50 -26 69 -30 134
-30 88 1 92 3 361 160 226 132 500 266 650 317 123 42 127 43 260 43 129 -1
140 -2 240 -37 58 -20 151 -56 207 -82 107 -48 187 -66 263 -59 l46 5 24 -54
c43 -93 44 -93 300 6 122 47 233 91 248 98 62 30 67 13 -216 714 -144 356
-269 655 -278 665 -10 11 -30 19 -48 18 -17 0 -134 -48 -261 -106z m435 -595
c118 -293 220 -547 227 -564 l12 -31 -150 -58 c-83 -31 -151 -56 -153 -54 -7
10 -413 963 -437 1026 l-27 73 61 27 c34 16 102 47 152 70 49 22 93 42 96 42
3 1 102 -239 219 -531z m-1665 306 c50 -8 160 -33 245 -55 316 -81 572 -107
739 -75 47 8 86 15 87 13 4 -4 326 -762 331 -780 5 -16 1 -17 -38 -11 -24 4
-96 30 -159 57 -262 112 -425 148 -578 127 -222 -30 -456 -131 -917 -394 -198
-112 -236 -131 -271 -130 -85 2 -144 65 -144 153 0 43 4 48 83 126 45 44 133
128 195 186 96 90 112 110 112 136 0 22 -8 38 -26 52 -44 35 -67 27 -152 -51
-42 -39 -198 -184 -347 -322 -647 -602 -671 -623 -709 -636 -50 -16 -99 -6
-141 31 -47 41 -61 88 -44 146 13 48 -23 14 1094 1054 369 344 401 373 425
382 29 11 126 7 215 -9z"/>
<path d="M2229 2946 c-148 -40 -259 -177 -259 -321 0 -46 4 -56 26 -74 18 -14
41 -21 70 -21 l44 0 0 -157 0 -158 -128 -31 c-271 -67 -491 -192 -692 -394
-165 -167 -276 -345 -349 -565 -41 -121 -71 -272 -71 -355 0 -79 -6 -87 -61
-92 -87 -9 -89 -14 -89 -220 l0 -178 -335 0 -336 0 -24 -25 c-30 -30 -32 -64
-4 -99 l20 -26 2293 0 2293 0 21 23 c31 33 29 80 -4 106 -26 20 -38 21 -355
21 l-328 0 -3 176 -3 176 -28 24 c-22 19 -39 24 -83 24 l-54 0 0 63 c0 139
-48 342 -119 505 -183 423 -562 738 -1013 842 l-98 22 0 159 0 159 45 0 c87 0
115 61 80 176 -55 186 -259 293 -456 240z m212 -157 c36 -18 99 -81 99 -99 0
-6 -80 -10 -205 -10 -113 0 -205 3 -205 8 0 15 63 83 91 97 71 37 152 39 220
4z m-31 -409 l0 -150 -75 0 -75 0 0 150 0 150 75 0 75 0 0 -150z m187 -329
c368 -76 688 -306 881 -636 90 -155 156 -367 168 -542 l7 -93 -1321 0 -1321 0
5 57 c25 306 131 563 322 788 204 238 516 403 842 445 102 14 303 4 417 -19z
m1211 -1548 l3 -123 -1476 0 -1475 0 0 125 0 125 1473 -2 1472 -3 3 -122z"/>
</g>
</svg>
