
<svg version="1.0" xmlns="http://www.w3.org/2000/svg"
 width="512.000000pt" height="512.000000pt" viewBox="0 0 512.000000 512.000000"
 preserveAspectRatio="xMidYMid meet">

<g transform="translate(0.000000,512.000000) scale(0.100000,-0.100000)"
fill="#789940" stroke="none">
<path d="M1313 4975 c-124 -34 -252 -127 -319 -232 -19 -28 -45 -85 -59 -126
l-25 -76 0 -1895 0 -1896 -380 0 c-415 0 -433 -2 -446 -56 -10 -38 5 -139 30
-208 45 -125 139 -233 256 -295 121 -65 30 -62 1772 -59 l1583 3 58 22 c102
39 180 86 249 151 79 74 122 139 152 225 l21 62 3 1888 2 1887 380 0 c256 0
387 4 403 11 40 18 51 50 43 124 -18 177 -127 340 -282 422 -126 67 -15 63
-1785 62 -1346 0 -1612 -3 -1656 -14z m2835 -152 c-2 -5 -18 -36 -36 -70 -71
-137 -66 31 -72 -2178 l-5 -1990 -24 -49 c-72 -146 -268 -254 -442 -244 -184
11 -322 142 -350 334 -9 58 -18 84 -35 101 l-23 23 -1046 0 -1045 0 0 1883 c0
2089 -5 1933 67 2037 45 63 111 114 185 140 51 19 101 19 1441 20 764 0 1387
-3 1385 -7z m504 -25 c77 -35 151 -107 188 -181 16 -33 30 -66 30 -74 0 -11
-61 -13 -331 -13 l-331 0 7 33 c30 139 95 226 193 258 54 17 182 5 244 -23z
m-1586 -4235 c20 -92 58 -174 104 -226 16 -19 30 -37 30 -41 0 -3 -602 -5
-1337 -4 l-1338 3 -57 27 c-77 36 -151 107 -188 181 -16 33 -30 66 -30 74 0
11 237 13 1405 13 l1405 0 6 -27z"/>
<path d="M2495 4591 c-76 -20 -140 -76 -174 -151 -16 -34 -21 -66 -21 -132 l0
-87 -57 -16 c-32 -9 -95 -34 -140 -55 -333 -155 -560 -462 -613 -829 l-12 -78
-51 -34 c-127 -84 -145 -269 -37 -377 72 -72 -22 -67 1145 -70 707 -2 1062 0
1086 7 57 17 112 63 143 120 64 118 20 273 -95 331 -35 18 -36 20 -48 106 -56
403 -350 751 -738 875 l-71 22 -4 96 c-4 106 -18 147 -70 200 -62 63 -163 93
-243 72z m105 -166 c40 -21 50 -43 50 -114 l0 -61 -95 0 -95 0 0 58 c1 64 16
98 51 118 32 18 54 17 89 -1z m198 -364 c335 -97 587 -368 656 -703 9 -42 16
-82 16 -88 0 -7 -287 -10 -915 -10 l-916 0 6 38 c35 202 113 365 244 504 125
133 299 233 477 272 101 23 334 16 432 -13z m809 -993 c37 -37 36 -93 -2 -125
l-26 -23 -1025 0 -1025 0 -24 25 c-48 47 -25 132 40 148 11 3 473 4 1027 3
l1008 -1 27 -27z"/>
<path d="M2428 3930 c-163 -28 -303 -109 -405 -235 -49 -60 -73 -106 -73 -137
0 -57 68 -95 115 -64 13 9 40 40 60 71 76 114 198 187 345 206 129 17 129 17
146 53 14 29 15 37 3 62 -25 51 -77 63 -191 44z"/>
<path d="M1372 2377 c-37 -39 -28 -98 19 -122 42 -22 1456 -22 1498 0 48 24
57 87 18 123 l-23 22 -745 0 -746 0 -21 -23z"/>
<path d="M3130 2380 c-26 -26 -26 -80 -1 -111 l19 -24 286 0 c272 0 286 1 305
20 31 32 31 85 1 115 -19 19 -33 20 -305 20 -272 0 -286 -1 -305 -20z"/>
<path d="M1370 1800 c-21 -21 -26 -69 -10 -100 5 -10 24 -23 41 -29 43 -15
1436 -16 1475 -1 57 22 73 89 31 128 l-23 22 -747 0 c-734 0 -747 0 -767 -20z"/>
<path d="M3130 1800 c-42 -42 -17 -120 42 -135 13 -3 141 -5 285 -3 247 3 264
4 282 23 31 32 31 85 1 115 -19 19 -33 20 -305 20 -272 0 -286 -1 -305 -20z"/>
<path d="M1370 1220 c-26 -26 -27 -83 -1 -109 11 -11 35 -23 53 -26 18 -3 353
-5 745 -3 l711 3 26 24 c34 32 35 79 3 109 l-23 22 -747 0 c-734 0 -747 0
-767 -20z"/>
<path d="M3130 1220 c-21 -21 -26 -69 -10 -100 5 -10 24 -23 41 -29 44 -15
505 -15 549 0 58 21 71 111 20 139 -11 6 -135 10 -299 10 -268 0 -282 -1 -301
-20z"/>
</g>
</svg>
